<svg xmlns="http://www.w3.org/2000/svg" viewBox="0 0 1230 820"><defs><style>.a{fill:#99ddd0;}.b{fill:#efa55a;}.c{fill:#fef9f3;}.d{fill:#030505;}.e{fill:#f08569;}.f{fill:#99b2ce;}.g{fill:#fff;}.g,.h{font-size:20px;font-family:BasisGrotesque-Regular, Basis Grotesque;}</style></defs><g transform="translate(-378 -4120)"><rect class="a" width="410" height="410" transform="translate(788 4530)"/><rect class="b" width="410" height="410" transform="translate(788 4120)"/><rect class="c" width="410" height="410" transform="translate(1198 4120)"/><rect class="d" width="410" height="410" transform="translate(1198 4530)"/><rect class="e" width="410" height="410" transform="translate(378 4120)"/><rect class="f" width="410" height="410" transform="translate(378 4530)"/><text class="g" transform="translate(409 4177)"><tspan x="0" y="0">HEX #F08569</tspan></text><text class="g" transform="translate(409 4576)"><tspan x="0" y="0">HEX #F08569</tspan></text><text class="g" transform="translate(821 4177)"><tspan x="0" y="0">HEX #F08569</tspan></text><text class="h" transform="translate(1234 4177)"><tspan x="0" y="0">HEX #F08569</tspan></text><text class="g" transform="translate(821 4576)"><tspan x="0" y="0">HEX #F08569</tspan></text><text class="g" transform="translate(1234 4576)"><tspan x="0" y="0">HEX #F08569</tspan></text><text class="g" transform="translate(409 4207)"><tspan x="0" y="0">R240 G133 B105</tspan></text><text class="g" transform="translate(409 4606)"><tspan x="0" y="0">R240 G133 B105</tspan></text><text class="g" transform="translate(821 4207)"><tspan x="0" y="0">R240 G133 B105</tspan></text><text class="h" transform="translate(1234 4207)"><tspan x="0" y="0">R240 G133 B105</tspan></text><text class="g" transform="translate(821 4606)"><tspan x="0" y="0">R240 G133 B105</tspan></text><text class="g" transform="translate(1234 4606)"><tspan x="0" y="0">R240 G133 B105</tspan></text></g></svg>