<svg xmlns="http://www.w3.org/2000/svg" viewBox="0 0 138.482 138.482">
  <defs>
    <style>
      .cls-1 {
        fill: #faf3a2;
      }

      .cls-2 {
        fill: #4d4d4d;
      }
    </style>
  </defs>
  <g id="Symbol_3_1" data-name="Symbol 3 – 1" transform="translate(-1653.49 -876.449)">
    <g id="Group_102" data-name="Group 102" transform="translate(1653.49 876.449)">
      <circle id="Ellipse_10" data-name="Ellipse 10" class="cls-1" cx="69.241" cy="69.241" r="69.241"/>
    </g>
    <g id="Group_103" data-name="Group 103" transform="translate(1677.346 940.133)">
      <path id="Path_236" data-name="Path 236" class="cls-2" d="M33.43,99.19h6.591v1.339H34.939v2.988H39.6v1.339H34.939v4.108H33.43Z" transform="translate(-33.43 -98.995)"/>
      <path id="Path_237" data-name="Path 237" class="cls-2" d="M60.466,103.952A5.467,5.467,0,0,1,60.089,106a4.835,4.835,0,0,1-1.035,1.607,4.694,4.694,0,0,1-1.546,1.047,5.074,5.074,0,0,1-3.84,0A4.714,4.714,0,0,1,51.087,106a5.763,5.763,0,0,1,0-4.1,4.9,4.9,0,0,1,1.035-1.607,4.694,4.694,0,0,1,1.546-1.047,4.875,4.875,0,0,1,1.917-.377,4.927,4.927,0,0,1,1.923.377,4.714,4.714,0,0,1,2.581,2.654A5.49,5.49,0,0,1,60.466,103.952ZM55.6,107.665a3.283,3.283,0,0,0,1.321-.268,3.106,3.106,0,0,0,1.059-.749,3.383,3.383,0,0,0,.706-1.175,4.8,4.8,0,0,0,0-3.055,3.383,3.383,0,0,0-.706-1.175,3.227,3.227,0,0,0-1.059-.749,3.391,3.391,0,0,0-2.641,0,3.106,3.106,0,0,0-1.059.749,3.383,3.383,0,0,0-.706,1.175,4.373,4.373,0,0,0-.25,1.528,4.518,4.518,0,0,0,.25,1.528,3.293,3.293,0,0,0,.706,1.175,3.227,3.227,0,0,0,1.059.749A3.262,3.262,0,0,0,55.6,107.665Z" transform="translate(-40.193 -98.87)"/>
      <path id="Path_238" data-name="Path 238" class="cls-2" d="M77.729,104.844H75.8v4.12H74.29V99.19h4.035a4.252,4.252,0,0,1,1.382.207,3.173,3.173,0,0,1,1.041.572,2.48,2.48,0,0,1,.657.87,2.674,2.674,0,0,1,.231,1.108,2.6,2.6,0,0,1-.621,1.765,3.255,3.255,0,0,1-1.7,1l2.428,4.248H80ZM75.8,103.536h2.428c1.266,0,1.9-.505,1.9-1.509s-.633-1.522-1.9-1.522H75.8Z" transform="translate(-49.422 -98.995)"/>
      <path id="Path_239" data-name="Path 239" class="cls-2" d="M105.32,99.19h1.509V103.3h4.553V99.19h1.509v9.775h-1.509v-4.3h-4.553v4.3H105.32Z" transform="translate(-61.566 -98.995)"/>
      <path id="Path_240" data-name="Path 240" class="cls-2" d="M126.06,99.19h1.509v9.775H126.06Z" transform="translate(-69.683 -98.995)"/>
      <path id="Path_241" data-name="Path 241" class="cls-2" d="M140.279,104.844h-1.929v4.12H136.84V99.19h4.035a4.252,4.252,0,0,1,1.382.207,3.173,3.173,0,0,1,1.041.572,2.48,2.48,0,0,1,.657.87,2.694,2.694,0,0,1,.231,1.108,2.6,2.6,0,0,1-.621,1.765,3.255,3.255,0,0,1-1.7,1l2.428,4.248h-1.747Zm-1.929-1.309h2.428c1.266,0,1.9-.505,1.9-1.509s-.633-1.522-1.9-1.522h-2.428Z" transform="translate(-73.902 -98.995)"/>
      <path id="Path_242" data-name="Path 242" class="cls-2" d="M156.46,99.19h6.427v1.339h-4.918v2.708h4.522v1.339h-4.522v3.043h4.96v1.339h-6.464V99.19Z" transform="translate(-81.581 -98.995)"/>
      <path id="Path_243" data-name="Path 243" class="cls-2" d="M175.19,107.3h1.564v1.662H175.19Zm.024-8.113h1.509v3.256l-.183,3.755H175.4l-.183-3.755Z" transform="translate(-88.911 -98.995)"/>
    </g>
  </g>
</svg>
