<svg xmlns="http://www.w3.org/2000/svg" viewBox="0 0 116.023 116.023">
  <defs>
    <style>
      .cls-1 {
        fill: #faf3a2;
      }
    </style>
  </defs>
  <g id="Group_98" data-name="Group 98" transform="translate(0 0)">
    <g id="Group_96" data-name="Group 96" transform="translate(0 0)">
      <circle id="Ellipse_9" data-name="Ellipse 9" class="cls-1" cx="58.012" cy="58.012" r="58.012"/>
    </g>
    <path id="Path_229" data-name="Path 229" d="M105.587,161.532A30.325,30.325,0,0,1,63,149.624l.438-.226a29.771,29.771,0,0,0,53.044-.448l.438.221A30.289,30.289,0,0,1,105.587,161.532Z" transform="translate(-32.012 -75.685)"/>
    <g id="Group_97" data-name="Group 97" transform="translate(29.827 24.938)">
      <path id="Path_230" data-name="Path 230" d="M60.64,74.446l.457-.5,2.656,2.41,2.887-3.182-2.656-2.41.457-.5,5.863,5.322-.457.5-2.774-2.518-2.887,3.182,2.774,2.518-.457.5Z" transform="translate(-60.64 -60.639)"/>
      <path id="Path_231" data-name="Path 231" d="M77.59,62.774l.566-.374,4.368,6.606-.566.374Z" transform="translate(-69.253 -56.645)"/>
      <path id="Path_232" data-name="Path 232" d="M92.878,58.717l-1.958.7,1.19,3.32-.639.231L88.8,55.52,91.653,54.5a2.955,2.955,0,0,1,1.023-.187,2.17,2.17,0,0,1,.871.187,2,2,0,0,1,.679.5,2.294,2.294,0,0,1,.438.753,2.065,2.065,0,0,1,.01,1.505,2.35,2.35,0,0,1-1.117,1.176l3.079,2.691-.684.246Zm-2.154.152,2.056-.738a2.238,2.238,0,0,0,1.181-.826,1.735,1.735,0,0,0-.831-2.312,2.293,2.293,0,0,0-1.436.113l-2.056.738Z" transform="translate(-74.949 -52.534)"/>
      <path id="Path_233" data-name="Path 233" d="M110.48,50.882l4.683-.182.025.59-4,.157.118,2.941,3.684-.143.025.59-3.684.143.128,3.212,4.038-.157.025.59-4.712.187Z" transform="translate(-85.965 -50.7)"/>
      <path id="Path_234" data-name="Path 234" d="M141.723,55.92l.674.369-.9,7.934,6.183-5.056.674.369L144.57,66.49l-.575-.315,3.222-5.912c-.039.039-.108.1-.2.182s-.192.167-.3.256-.241.207-.379.32l-4.747,3.842-.674-.369.649-6.065c.025-.187.044-.354.069-.5s.039-.266.054-.389a2.061,2.061,0,0,1,.044-.266l-3.222,5.912-.576-.315Z" transform="translate(-99.918 -53.352)"/>
      <path id="Path_235" data-name="Path 235" d="M162.722,71.69l3.109,3.5-.443.389-2.656-3-2.2,1.953,2.45,2.759-.443.389L160.1,74.927l-2.405,2.13,2.681,3.02-.443.389L156.8,76.933Z" transform="translate(-109.501 -61.366)"/>
    </g>
  </g>
</svg>
