<svg xmlns="http://www.w3.org/2000/svg" viewBox="0 0 186.902 186.902">
  <defs>
    <style>
      .cls-1 {
        fill: #faf3a2;
      }

      .cls-1, .cls-2 {
        stroke: #000;
        stroke-miterlimit: 10;
        stroke-width: 2px;
      }

      .cls-2 {
        fill: none;
      }
    </style>
  </defs>
  <g id="Group_27" data-name="Group 27" transform="matrix(0.883, 0.469, -0.469, 0.883, 65.063, 0.595)">
    <circle id="Ellipse_4" data-name="Ellipse 4" class="cls-1" cx="68.099" cy="68.099" r="68.099" transform="translate(0.56 0.56)"/>
    <path id="Path_192" data-name="Path 192" class="cls-2" d="M137.515,157.56a39.478,39.478,0,0,1-78.955,0" transform="translate(-29.379 -79.525)"/>
    <g id="Group_40" data-name="Group 40" transform="translate(22.318 17.789)">
      <path id="Path_194" data-name="Path 194" d="M52.92,102.415l1-1.617,5.9,3.623,4.1-6.67-5.9-3.623,1-1.617L72.5,100.8l-1,1.617-6.168-3.789-4.1,6.67,6.168,3.789-1,1.617Z" transform="translate(-52.92 -72.923)"/>
      <path id="Path_195" data-name="Path 195" d="M85.57,73.948,87,72.7l10.41,11.933L95.98,85.881Z" transform="translate(-73.26 -60.582)"/>
      <path id="Path_196" data-name="Path 196" d="M116.318,59.547l-3.25,1.486,2.854,6.255-1.727.788L107.62,53.669l5.742-2.62a6.192,6.192,0,0,1,2.066-.569,4.809,4.809,0,0,1,1.851.189,3.989,3.989,0,0,1,1.519.875,4.5,4.5,0,0,1,1.056,1.47,4.161,4.161,0,0,1,.238,3,4.906,4.906,0,0,1-1.945,2.579l6.5,4.717-1.934.882Zm-3.948-.041,3.706-1.689a4.163,4.163,0,0,0,2.077-1.742,2.82,2.82,0,0,0-1.727-3.785,4.147,4.147,0,0,0-2.677.426l-3.706,1.693Z" transform="translate(-86.996 -46.728)"/>
      <path id="Path_197" data-name="Path 197" d="M158.29,40.963l9.9-.4.068,1.674-8,.328.211,5.131,7.367-.3.068,1.674-7.367.3.23,5.674,8.069-.328.068,1.674-9.969.4Z" transform="translate(-118.562 -40.56)"/>
      <path id="Path_198" data-name="Path 198" d="M222.248,53.62l1.67,1.165-3.491,14.949,12.838-8.415,1.67,1.165-9.071,12.981-1.482-1.037,7-10.014c-.087.068-.234.177-.445.324s-.43.3-.649.456c-.253.173-.532.366-.841.573l-9.12,5.825-1.595-1.116,2.334-10.568c.087-.362.17-.69.249-.988q.107-.39.2-.769c.064-.249.113-.426.151-.532l-7.005,10.018L213.18,66.6Z" transform="translate(-152.757 -48.696)"/>
      <path id="Path_199" data-name="Path 199" d="M264.935,97.87l4.954,8.581-1.448.837-4-6.934-4.445,2.568,3.687,6.387-1.448.837-3.687-6.387-4.917,2.839,4.038,6.994-1.448.837-4.988-8.638Z" transform="translate(-176.46 -76.262)"/>
    </g>
  </g>
</svg>
