<svg xmlns="http://www.w3.org/2000/svg" viewBox="0 0 120 120">
  <g id="Group_126" data-name="Group 126" transform="translate(-533 -619)">
    <path id="Path_261" data-name="Path 261" d="M60,0A60,60,0,1,1,0,60,60,60,0,0,1,60,0Z" transform="translate(533 619)" fill="#fcfd54"/>
    <g id="Group_125" data-name="Group 125">
      <path id="Path_244" data-name="Path 244" d="M557.035,662.652h1.38v12.381h-1.38Z"/>
      <path id="Path_245" data-name="Path 245" d="M562.059,670.877a4.257,4.257,0,0,0,.256,1.282,3.175,3.175,0,0,0,.611,1.026,2.8,2.8,0,0,0,.928.681,2.92,2.92,0,0,0,1.229.247,3.344,3.344,0,0,0,1.053-.15,2.675,2.675,0,0,0,.8-.424,3.145,3.145,0,0,0,.62-.637,5.578,5.578,0,0,0,.477-.787l1.008.6a5.144,5.144,0,0,1-1.574,1.884,4.1,4.1,0,0,1-2.441.681,4.162,4.162,0,0,1-1.689-.345,4.289,4.289,0,0,1-1.379-.956,4.449,4.449,0,0,1-.938-1.467,5.233,5.233,0,0,1,0-3.732,4.464,4.464,0,0,1,.938-1.468,4.27,4.27,0,0,1,1.4-.956,4.346,4.346,0,0,1,1.724-.344,4.6,4.6,0,0,1,1.778.327,3.728,3.728,0,0,1,1.326.911,4.056,4.056,0,0,1,.832,1.389,5.135,5.135,0,0,1,.292,1.759v.478Zm3.024-3.7a2.663,2.663,0,0,0-1.928.715,3.553,3.553,0,0,0-.99,1.849h5.766a2.627,2.627,0,0,0-.291-1.1,2.664,2.664,0,0,0-.656-.8,2.749,2.749,0,0,0-.9-.495A3.124,3.124,0,0,0,565.083,667.181Z"/>
      <path id="Path_246" data-name="Path 246" d="M570.565,666.261h1.468v-2.37h1.38v2.37h2.017v1.1h-2.017v5.306a3.866,3.866,0,0,0,.044.619,1,1,0,0,0,.178.443.786.786,0,0,0,.362.264,1.738,1.738,0,0,0,.619.089,1.83,1.83,0,0,0,.327-.035c.124-.023.233-.047.328-.071l.124,1.15a2.157,2.157,0,0,1-.5.123,5.159,5.159,0,0,1-.672.036,2.98,2.98,0,0,1-.823-.115,1.727,1.727,0,0,1-.7-.39,1.954,1.954,0,0,1-.486-.724,2.959,2.959,0,0,1-.187-1.123v-5.572h-1.468Z"/>
      <path id="Path_247" data-name="Path 247" d="M576.845,666.385l1.06-2h-.654v-1.734h1.663v1.734l-1.716,2.263Z"/>
      <path id="Path_248" data-name="Path 248" d="M581.2,668.33a1.1,1.1,0,0,0,.637,1.017,5.83,5.83,0,0,0,1.7.54,5.089,5.089,0,0,1,2.176.866,2.04,2.04,0,0,1,.778,1.716,2.724,2.724,0,0,1-.213,1.07,2.516,2.516,0,0,1-.636.893,3.157,3.157,0,0,1-1.043.619,4.5,4.5,0,0,1-2.76.026,3.881,3.881,0,0,1-1.069-.548,3.63,3.63,0,0,1-.8-.813,4.283,4.283,0,0,1-.531-.982l1.15-.708a3.667,3.667,0,0,0,.973,1.477,2.306,2.306,0,0,0,1.609.575,2.26,2.26,0,0,0,1.424-.407,1.372,1.372,0,0,0,.521-1.15,1.131,1.131,0,0,0-.547-1.007,4.87,4.87,0,0,0-1.7-.567,6.093,6.093,0,0,1-1.131-.309,3.438,3.438,0,0,1-.929-.522,2.529,2.529,0,0,1-.637-.743,1.982,1.982,0,0,1-.239-.99,2.03,2.03,0,0,1,.248-1.008,2.29,2.29,0,0,1,.663-.743,3.119,3.119,0,0,1,.964-.46,4.106,4.106,0,0,1,1.15-.159,3.828,3.828,0,0,1,2.184.557,3.334,3.334,0,0,1,1.229,1.566l-1.061.618a2.318,2.318,0,0,0-.973-1.229,2.747,2.747,0,0,0-1.361-.344,2.566,2.566,0,0,0-1.256.282A.926.926,0,0,0,581.2,668.33Z"/>
      <path id="Path_249" data-name="Path 249" d="M601.234,673.3l1.787-7.039h1.415l-2.476,8.772h-1.486l-1.946-7.145-1.945,7.145H595.1l-2.476-8.772h1.415l1.786,7.039,1.981-7.039h1.451Z"/>
      <path id="Path_250" data-name="Path 250" d="M614.394,670.646a4.615,4.615,0,0,1-.407,1.982,4.543,4.543,0,0,1-1.061,1.459,4.485,4.485,0,0,1-1.477.893,4.62,4.62,0,0,1-3.281,0,4.5,4.5,0,0,1-1.468-.893,4.542,4.542,0,0,1-1.061-1.459,5.025,5.025,0,0,1,0-3.962,4.488,4.488,0,0,1,2.529-2.353,4.635,4.635,0,0,1,3.281,0,4.467,4.467,0,0,1,2.538,2.353A4.612,4.612,0,0,1,614.394,670.646Zm-4.581,3.4a3.026,3.026,0,0,0,1.247-.257,3.092,3.092,0,0,0,1-.707,3.381,3.381,0,0,0,.671-1.07,3.864,3.864,0,0,0,0-2.724,3.381,3.381,0,0,0-.671-1.07,3.092,3.092,0,0,0-1-.707,3.154,3.154,0,0,0-2.494,0,3.092,3.092,0,0,0-1,.707,3.38,3.38,0,0,0-.671,1.07,3.863,3.863,0,0,0,0,2.724,3.38,3.38,0,0,0,.671,1.07,3.092,3.092,0,0,0,1,.707A3.026,3.026,0,0,0,609.813,674.043Z"/>
      <path id="Path_251" data-name="Path 251" d="M620.956,667.393a2.137,2.137,0,0,0-.69-.107,1.788,1.788,0,0,0-.858.213,2.316,2.316,0,0,0-.708.592,2.84,2.84,0,0,0-.486.929,3.959,3.959,0,0,0-.177,1.22v4.793h-1.38v-8.772h1.38v1.592a3.578,3.578,0,0,1,.982-1.319,2.369,2.369,0,0,1,1.565-.521,1.945,1.945,0,0,1,.283.026c.118.018.224.039.319.063Z"/>
      <path id="Path_252" data-name="Path 252" d="M624.369,669.55l3.343-3.289h1.645l-3.024,2.989,3.625,5.783h-1.574l-3.006-4.81-1.009,1.007v3.8h-1.38V662.652h1.38Z"/>
      <path id="Path_253" data-name="Path 253" d="M558.415,686.372h1.468V684h1.38v2.37h2.016v1.1h-2.016v5.3a3.753,3.753,0,0,0,.044.62,1,1,0,0,0,.177.442.794.794,0,0,0,.363.265,1.764,1.764,0,0,0,.619.088,1.74,1.74,0,0,0,.327-.035c.124-.023.232-.047.327-.071l.124,1.15a2.136,2.136,0,0,1-.495.123,5.153,5.153,0,0,1-.673.037,2.94,2.94,0,0,1-.822-.116,1.729,1.729,0,0,1-.7-.389,1.956,1.956,0,0,1-.487-.725,2.96,2.96,0,0,1-.186-1.123v-5.571h-1.468Z"/>
      <path id="Path_254" data-name="Path 254" d="M573.714,690.758a4.628,4.628,0,0,1-.406,1.981,4.534,4.534,0,0,1-1.062,1.459,4.467,4.467,0,0,1-1.476.894,4.623,4.623,0,0,1-3.282,0,4.469,4.469,0,0,1-1.467-.894,4.519,4.519,0,0,1-1.062-1.459,5.036,5.036,0,0,1,0-3.962,4.531,4.531,0,0,1,1.062-1.459,4.483,4.483,0,0,1,1.467-.893,4.624,4.624,0,0,1,3.282,0,4.481,4.481,0,0,1,1.476.893,4.545,4.545,0,0,1,1.062,1.459A4.631,4.631,0,0,1,573.714,690.758Zm-4.58,3.4a3.023,3.023,0,0,0,1.246-.257,3.056,3.056,0,0,0,1-.707,3.371,3.371,0,0,0,.672-1.07,3.879,3.879,0,0,0,0-2.724,3.383,3.383,0,0,0-.672-1.07,3.071,3.071,0,0,0-1-.707,3.151,3.151,0,0,0-2.493,0,3.07,3.07,0,0,0-1,.707,3.365,3.365,0,0,0-.672,1.07,3.879,3.879,0,0,0,0,2.724,3.353,3.353,0,0,0,.672,1.07,3.052,3.052,0,0,0,2.247.964Z"/>
      <path id="Path_255" data-name="Path 255" d="M577.357,695.923a1.128,1.128,0,0,0-.1.265,1.473,1.473,0,0,0-.028.319,1.03,1.03,0,0,0,.6.91,3.668,3.668,0,0,0,1.786.345,2.7,2.7,0,0,0,2.141-.769,3.4,3.4,0,0,0,.672-2.291v-1.5a3.339,3.339,0,0,1-1.212,1.326,3.231,3.231,0,0,1-1.742.478,4.154,4.154,0,0,1-1.6-.31,3.791,3.791,0,0,1-1.309-.892,4.232,4.232,0,0,1-.875-1.406,5.511,5.511,0,0,1,.009-3.715,4.322,4.322,0,0,1,.875-1.4,3.572,3.572,0,0,1,1.282-.866,4.215,4.215,0,0,1,1.566-.292,3.489,3.489,0,0,1,1.857.486,2.8,2.8,0,0,1,1.15,1.336v-1.574h1.379v8.313a4.437,4.437,0,0,1-1.079,3.174A4.077,4.077,0,0,1,579.621,699a4.58,4.58,0,0,1-2.829-.725,2.214,2.214,0,0,1-.938-1.822,2.4,2.4,0,0,1,.053-.53,1.184,1.184,0,0,1,.142-.371Zm2.283-8.561a2.925,2.925,0,0,0-1.142.221,2.606,2.606,0,0,0-.9.628A2.829,2.829,0,0,0,577,689.22a4.366,4.366,0,0,0,0,2.688,2.833,2.833,0,0,0,.593,1.008,2.606,2.606,0,0,0,.9.628,2.907,2.907,0,0,0,1.142.221,2.963,2.963,0,0,0,1.149-.221,2.691,2.691,0,0,0,.92-.628,2.861,2.861,0,0,0,.609-1.008,4.18,4.18,0,0,0,0-2.688,2.857,2.857,0,0,0-.609-1.009,2.69,2.69,0,0,0-.92-.628A2.981,2.981,0,0,0,579.64,687.362Z"/>
      <path id="Path_256" data-name="Path 256" d="M587.315,690.988a4.3,4.3,0,0,0,.257,1.283,3.169,3.169,0,0,0,.611,1.025,2.788,2.788,0,0,0,.928.682,2.92,2.92,0,0,0,1.229.247,3.313,3.313,0,0,0,1.053-.151,2.664,2.664,0,0,0,.8-.424,3.108,3.108,0,0,0,.619-.636,5.645,5.645,0,0,0,.478-.787l1.008.6a5.136,5.136,0,0,1-1.574,1.884,4.107,4.107,0,0,1-2.441.682,4.163,4.163,0,0,1-1.689-.346,4.3,4.3,0,0,1-1.379-.955,4.453,4.453,0,0,1-.938-1.468,5.23,5.23,0,0,1,0-3.731,4.458,4.458,0,0,1,.938-1.469,4.265,4.265,0,0,1,1.4-.955,4.326,4.326,0,0,1,1.724-.345,4.6,4.6,0,0,1,1.778.327,3.74,3.74,0,0,1,1.326.911,4.037,4.037,0,0,1,.831,1.389,5.115,5.115,0,0,1,.292,1.76v.477Zm3.025-3.7a2.659,2.659,0,0,0-1.928.716,3.55,3.55,0,0,0-.99,1.848h5.765a2.6,2.6,0,0,0-.291-1.1,2.637,2.637,0,0,0-.655-.8,2.748,2.748,0,0,0-.9-.495A3.151,3.151,0,0,0,590.34,687.292Z"/>
      <path id="Path_257" data-name="Path 257" d="M595.822,686.372h1.468V684h1.38v2.37h2.017v1.1H598.67v5.3a3.87,3.87,0,0,0,.044.62.99.99,0,0,0,.178.442.79.79,0,0,0,.362.265,1.764,1.764,0,0,0,.619.088,1.74,1.74,0,0,0,.327-.035c.124-.023.233-.047.327-.071l.124,1.15a2.136,2.136,0,0,1-.495.123,5.142,5.142,0,0,1-.673.037,2.94,2.94,0,0,1-.822-.116,1.736,1.736,0,0,1-.7-.389,1.966,1.966,0,0,1-.486-.725,2.959,2.959,0,0,1-.187-1.123v-5.571h-1.468Z"/>
      <path id="Path_258" data-name="Path 258" d="M610.361,695.145h-1.38v-5.678a1.984,1.984,0,0,0-.6-1.583,2.263,2.263,0,0,0-1.538-.522,2.472,2.472,0,0,0-.983.2,2.564,2.564,0,0,0-.831.584,2.939,2.939,0,0,0-.583.92,3.16,3.16,0,0,0-.221,1.211v4.865h-1.38V682.764h1.38v5.146a3.242,3.242,0,0,1,1.238-1.3,3.355,3.355,0,0,1,1.751-.486,3.83,3.83,0,0,1,1.176.186,2.739,2.739,0,0,1,1.707,1.53,3.321,3.321,0,0,1,.265,1.38Z"/>
      <path id="Path_259" data-name="Path 259" d="M613.828,690.988a4.27,4.27,0,0,0,.257,1.283,3.167,3.167,0,0,0,.61,1.025,2.8,2.8,0,0,0,.929.682,2.916,2.916,0,0,0,1.229.247,3.307,3.307,0,0,0,1.052-.151,2.658,2.658,0,0,0,.8-.424,3.163,3.163,0,0,0,.619-.636,5.645,5.645,0,0,0,.478-.787l1.007.6a5.127,5.127,0,0,1-1.574,1.884,4.1,4.1,0,0,1-2.44.682,4.168,4.168,0,0,1-1.69-.346,4.323,4.323,0,0,1-1.379-.955,4.451,4.451,0,0,1-.937-1.468,5.216,5.216,0,0,1,0-3.731,4.455,4.455,0,0,1,.937-1.469,4.279,4.279,0,0,1,1.4-.955,4.323,4.323,0,0,1,1.724-.345,4.6,4.6,0,0,1,1.778.327,3.748,3.748,0,0,1,1.326.911,4.053,4.053,0,0,1,.831,1.389,5.139,5.139,0,0,1,.292,1.76v.477Zm3.025-3.7a2.658,2.658,0,0,0-1.928.716,3.55,3.55,0,0,0-.99,1.848H619.7a2.6,2.6,0,0,0-.291-1.1,2.651,2.651,0,0,0-.655-.8,2.768,2.768,0,0,0-.9-.495A3.151,3.151,0,0,0,616.853,687.292Z"/>
      <path id="Path_260" data-name="Path 260" d="M627.677,687.5a2.17,2.17,0,0,0-.691-.107,1.8,1.8,0,0,0-.857.213,2.3,2.3,0,0,0-.708.592,2.85,2.85,0,0,0-.486.929,3.931,3.931,0,0,0-.177,1.221v4.793h-1.38v-8.773h1.38v1.592a3.572,3.572,0,0,1,.981-1.318,2.368,2.368,0,0,1,1.566-.522,2.1,2.1,0,0,1,.283.026q.177.027.318.063Z"/>
    </g>
  </g>
</svg>
